<svg xmlns="http://www.w3.org/2000/svg" viewBox="0 0 93.18 18.89"><defs><style>.cls-1,.cls-2{fill:#ffc107;}.cls-2{font-size:17px;font-family:ImprintMT-Shadow, Imprint MT Shadow;}</style></defs><g id="Calque_2" data-name="Calque 2"><g id="Calque_1-2" data-name="Calque 1"><g id="Calque_2-2" data-name="Calque 2"><g id="Layer_1" data-name="Layer 1"><path class="cls-1" d="M18,18.84h-.6c-.1,0-.2-.1-.3-.2a.3.3,0,0,1,0-.4l.2-.6a8.25,8.25,0,0,1,.3-1c.1-.1,0-.2-.1-.3a1.28,1.28,0,0,1-.4-.8,1.39,1.39,0,0,1,0-.9,1.19,1.19,0,0,1,.5-.7.34.34,0,0,0,.1-.3V6.94h-.2l-5.6,1.7-1.1.4a1.7,1.7,0,0,1-1,0C7.78,8.34,6.18,7.84,5,7.49L.24,5.69,0,5.49s-.1-.2,0-.3a.41.41,0,0,1,.1-.3c.1-.1.1-.1.2-.1,1-.4,2.4-.9,4.3-1.5l1.7-.6c.5-.2,1.2-.4,2.2-.7l1-.3a3.08,3.08,0,0,1,1.9,0q2.85.9,4.5,1.5,2.55.9,4.5,1.8h.1c.3,0,.4.3.4.5a.35.35,0,0,1-.29.4.2.2,0,0,1-.11,0c-1,.3-1.7.6-2.1.7a.11.11,0,0,0-.1.1h0v6.9c0,.1,0,.2.1.2a1.33,1.33,0,0,1,.6.7,3.07,3.07,0,0,1,.1,1,1.87,1.87,0,0,1-.5.9l-.1.1v.2l.4,1.5c.1.5,0,.7-.4.7ZM3.68,9.34V7.84h.2a41.21,41.21,0,0,0,4,1.4l2.2.7a.64.64,0,0,0,.6,0,1.38,1.38,0,0,0,.6-.2c.8-.2,1.8-.6,3.3-1.1l2.4-.8h.3v2.65a1.81,1.81,0,0,1-.4,1.3,3.24,3.24,0,0,1-1.5,1.1,10.26,10.26,0,0,1-3.5.8A12.1,12.1,0,0,1,8,13.49a6.74,6.74,0,0,1-2.8-1,2.88,2.88,0,0,1-1-.9.93.93,0,0,1-.6-1Z"/></g></g><path d="M64,9.85c-1.06.14-1.12.24-1.12,1.24v1.43a8.85,8.85,0,0,0,.1,1.61,17.13,17.13,0,0,1-3.86.62c-3.86,0-6.2-2.4-6.2-5.82,0-3.58,2.92-5.73,6.32-5.73a16.81,16.81,0,0,1,3.53.43c0,.63.12,1.66.26,2.74l-.51.1c-.41-1.45-.9-2.06-2-2.42A6,6,0,0,0,59,3.83c-2.6,0-4.29,1.79-4.29,4.9,0,2.7,1.4,5.39,4.7,5.39a3.4,3.4,0,0,0,1.44-.29,1,1,0,0,0,.58-1.09V11.35c0-1.25-.14-1.38-1.77-1.5V9.36H64Z"/><path d="M69,14.49H65.1V14c1.07-.1,1.17-.18,1.17-1.29V9.19c0-1.13-.07-1.18-1-1.29V7.47a9.46,9.46,0,0,0,2.39-.7V8.64c.6-.88,1.31-1.82,2.16-1.82a.88.88,0,0,1,1,.82,1.13,1.13,0,0,1-.58.93.32.32,0,0,1-.44,0A1.1,1.1,0,0,0,69,8.12c-.35,0-1,.52-1.36,1.39v3.2c0,1.12.09,1.2,1.4,1.3Z"/><path d="M76.88,14.69a1.22,1.22,0,0,1-.8-.32,1.66,1.66,0,0,1-.41-.76,5.28,5.28,0,0,1-2,1.08,2.08,2.08,0,0,1-2.07-2.09A1.74,1.74,0,0,1,73,10.9a13.51,13.51,0,0,0,2.69-1.1V9.46c0-1.21-.61-1.9-1.5-1.9a1,1,0,0,0-.8.39,3.93,3.93,0,0,0-.46,1.1.46.46,0,0,1-.49.39.82.82,0,0,1-.75-.75c0-.23.22-.44.56-.68a7.45,7.45,0,0,1,2.45-1.19,2.39,2.39,0,0,1,1.43.46,2.37,2.37,0,0,1,.87,2v3.29c0,.78.28,1,.59,1a1.32,1.32,0,0,0,.61-.19l.17.47Zm-1.24-4.3c-.38.19-1.19.55-1.58.72-.65.29-1,.61-1,1.24a1.24,1.24,0,0,0,1.22,1.31,2.25,2.25,0,0,0,1.4-.61Z"/><path d="M87.23,14.07a17.34,17.34,0,0,0-2.63.62v-1.1c-.31.19-.75.42-1.06.61a3.1,3.1,0,0,1-1.34.49A3.54,3.54,0,0,1,79,11a4.28,4.28,0,0,1,4.4-4.13A3.58,3.58,0,0,1,84.6,7V4.51c0-1.09-.12-1.12-1.33-1.22V2.85a17.21,17.21,0,0,0,2.67-.58V12.52c0,.88.12,1,.75,1l.54,0ZM84.6,8.35a2.15,2.15,0,0,0-1.79-.86c-.81,0-2.26.54-2.26,3,0,2.06,1.28,3.14,2.36,3.16A3.11,3.11,0,0,0,84.6,13Z"/><path d="M92.38,9.05c-.3-1-.75-1.67-1.78-1.67a1,1,0,0,0-1.06,1.11c0,.73.5,1.07,1.45,1.51,1.46.7,2.19,1.21,2.19,2.33a2.53,2.53,0,0,1-2.77,2.36,4.48,4.48,0,0,1-2-.47c-.09-.49-.24-1.43-.31-2l.49-.09c.31,1.09.91,2,2.09,2A1.14,1.14,0,0,0,91.85,13c0-.76-.45-1.16-1.36-1.6-1.18-.58-2.15-1.12-2.15-2.34s1-2.2,2.65-2.2A8.88,8.88,0,0,1,92.62,7c0,.41.17,1.48.25,1.89Z"/><text class="cls-2" transform="translate(21.72 14.36)">Edu</text></g></g></svg>