<svg xmlns="http://www.w3.org/2000/svg" viewBox="0 0 92.18 17.35"><defs><style>.cls-1{fill:#ffc107;}</style></defs><g id="Calque_2" data-name="Calque 2"><g id="Calque_1-2" data-name="Calque 1"><g id="Calque_2-2" data-name="Calque 2"><g id="Layer_1" data-name="Layer 1"><path class="cls-1" d="M28.28,9.37V12h4.9v2h-6.8V3.07h6.8v2h-4.9v2.4h4.3v1.9Z" transform="translate(0 -1.07)"/><path class="cls-1" d="M39.88,3.07h2v10.8h-2v-.8a3.07,3.07,0,0,1-2.4,1,2.7,2.7,0,0,1-1.3-.3,3.88,3.88,0,0,1-1.1-.7,4.93,4.93,0,0,1-.8-1.2,4.33,4.33,0,0,1-.3-1.6,6.06,6.06,0,0,1,.2-1.4A4.63,4.63,0,0,1,35.58,7a3.47,3.47,0,0,1,1-.5,4.63,4.63,0,0,1,1.1-.2,3.1,3.1,0,0,1,2.2.9Zm0,7.1a2.45,2.45,0,0,0-.6-1.6,1.93,1.93,0,0,0-2.72-.07l-.08.07a2.3,2.3,0,0,0,0,3.1,1.93,1.93,0,0,0,2.73.08l.07-.08A1.84,1.84,0,0,0,39.88,10.17Z" transform="translate(0 -1.07)"/><path class="cls-1" d="M48.88,6.57h1.9v7.3h-1.9v-.8a2.3,2.3,0,0,1-2,1,3.24,3.24,0,0,1-2.5-.8,3.91,3.91,0,0,1-.9-2.9V6.57h1.9v3.6a2.13,2.13,0,0,0,.5,1.5,1.41,1.41,0,0,0,1.2.6,1.56,1.56,0,0,0,1.3-.6,2.33,2.33,0,0,0,.5-1.8Z" transform="translate(0 -1.07)"/><path class="cls-1" d="M18,18.37h-.6c-.1,0-.2-.1-.3-.2a.3.3,0,0,1,0-.4l.2-.6a8.83,8.83,0,0,1,.3-1c.1-.1,0-.2-.1-.3a1.26,1.26,0,0,1-.4-.8,1.39,1.39,0,0,1,0-.9,1.26,1.26,0,0,1,.5-.7.34.34,0,0,0,.1-.3V6.47h-.2l-5.6,1.7-1.1.4a1.56,1.56,0,0,1-1,0C7.78,7.87,6.18,7.37,5,7q-2.7-1-4.8-1.8L0,5s-.1-.2,0-.3a.41.41,0,0,1,.1-.3c.1-.1.1-.1.2-.1,1-.4,2.4-.9,4.3-1.5l1.7-.6c.5-.2,1.2-.4,2.2-.7l1-.3a3.08,3.08,0,0,1,1.9,0q2.85.9,4.5,1.5,2.55.9,4.5,1.8h.1c.3,0,.4.3.4.5a.34.34,0,0,1-.29.4h-.11c-1,.3-1.7.6-2.1.7a.11.11,0,0,0-.1.1h0v6.9c0,.1,0,.2.1.2a1.37,1.37,0,0,1,.6.7,3.1,3.1,0,0,1,.1,1,1.87,1.87,0,0,1-.5.9l-.1.1v.2l.4,1.5c.1.5,0,.7-.4.7ZM3.68,8.87V7.37h.2a38.7,38.7,0,0,0,4,1.4l2.2.7a.64.64,0,0,0,.6,0,1.26,1.26,0,0,0,.6-.2c.8-.2,1.8-.6,3.3-1.1l2.4-.8h.3V10a1.79,1.79,0,0,1-.4,1.3,3.17,3.17,0,0,1-1.5,1.1,10.26,10.26,0,0,1-3.5.8A11.54,11.54,0,0,1,8,13a6.74,6.74,0,0,1-2.8-1,2.78,2.78,0,0,1-1-.9.92.92,0,0,1-.6-1Z" transform="translate(0 -1.07)"/></g></g><path d="M63,9.38c-1.06.14-1.12.24-1.12,1.25v1.42a8.9,8.9,0,0,0,.1,1.62,17.16,17.16,0,0,1-3.86.61c-3.86,0-6.2-2.4-6.2-5.81,0-3.59,2.92-5.73,6.32-5.73a17.79,17.79,0,0,1,3.53.42c0,.63.12,1.67.26,2.74l-.51.1c-.41-1.44-.9-2.06-2-2.41A5.58,5.58,0,0,0,58,3.37c-2.6,0-4.29,1.78-4.29,4.89,0,2.71,1.4,5.39,4.7,5.39a3.4,3.4,0,0,0,1.44-.29c.36-.2.58-.39.58-1.09V10.88c0-1.24-.14-1.38-1.77-1.5V8.89H63Z" transform="translate(0 -1.07)"/><path d="M68,14H64.1v-.47c1.07-.1,1.17-.19,1.17-1.29V8.72c0-1.12-.07-1.17-1-1.29V7a9.43,9.43,0,0,0,2.39-.69V8.18c.6-.89,1.31-1.82,2.16-1.82a.88.88,0,0,1,1,.81,1.13,1.13,0,0,1-.58.94.34.34,0,0,1-.44,0A1.07,1.07,0,0,0,68,7.65c-.35,0-1,.53-1.36,1.39v3.2c0,1.12.09,1.21,1.4,1.31Z" transform="translate(0 -1.07)"/><path d="M75.88,14.23a1.27,1.27,0,0,1-.8-.32,1.64,1.64,0,0,1-.41-.77,5.32,5.32,0,0,1-2,1.09,2.08,2.08,0,0,1-2.07-2.09A1.73,1.73,0,0,1,72,10.44a13.41,13.41,0,0,0,2.69-1.11V9c0-1.2-.61-1.9-1.5-1.9a1,1,0,0,0-.8.39,4,4,0,0,0-.46,1.11.46.46,0,0,1-.49.39.82.82,0,0,1-.75-.75c0-.24.22-.44.56-.68a7.08,7.08,0,0,1,2.45-1.19,2.33,2.33,0,0,1,1.43.46,2.37,2.37,0,0,1,.87,2v3.28c0,.78.28,1,.59,1a1.22,1.22,0,0,0,.61-.19l.17.48Zm-1.24-4.3c-.38.19-1.19.54-1.58.71-.65.29-1,.61-1,1.24a1.24,1.24,0,0,0,1.22,1.31,2.25,2.25,0,0,0,1.4-.61Z" transform="translate(0 -1.07)"/><path d="M86.23,13.6a17.7,17.7,0,0,0-2.63.63V13.12l-1.06.62a3.1,3.1,0,0,1-1.34.49A3.54,3.54,0,0,1,78,10.49a4.28,4.28,0,0,1,4.4-4.13,3.32,3.32,0,0,1,1.16.19V4.05c0-1.09-.12-1.13-1.33-1.23V2.38a17.21,17.21,0,0,0,2.67-.58V12.05c0,.89.12,1,.75,1l.54,0ZM83.6,7.89A2.13,2.13,0,0,0,81.81,7c-.81,0-2.26.55-2.26,3,0,2.06,1.28,3.15,2.36,3.17a3,3,0,0,0,1.69-.62Z" transform="translate(0 -1.07)"/><path d="M91.38,8.59c-.3-1-.75-1.67-1.78-1.67A1,1,0,0,0,88.54,8c0,.74.5,1.08,1.45,1.52,1.46.69,2.19,1.2,2.19,2.33a2.53,2.53,0,0,1-2.77,2.36,4.34,4.34,0,0,1-2-.48c-.09-.49-.24-1.42-.31-2l.49-.08c.31,1.09.91,2,2.09,2a1.13,1.13,0,0,0,1.19-1.15c0-.77-.45-1.16-1.36-1.6-1.18-.58-2.15-1.12-2.15-2.35s1-2.19,2.65-2.19a8.88,8.88,0,0,1,1.63.22c0,.41.17,1.48.25,1.89Z" transform="translate(0 -1.07)"/></g></g></svg>