<svg xmlns="http://www.w3.org/2000/svg" viewBox="0 0 95.36 18.76"><defs><style>.cls-1{fill:#ffc107;}.cls-2{font-size:17px;font-family:ImprintMT-Shadow, Imprint MT Shadow;}</style></defs><g id="Calque_2" data-name="Calque 2"><g id="Calque_1-2" data-name="Calque 1"><g id="Calque_2-2" data-name="Calque 2"><g id="Layer_1" data-name="Layer 1"><path class="cls-1" d="M28.28,9.71v2.65h4.9v2h-6.8V3.41h6.8v2h-4.9v2.4h4.3v1.9Z"/><path class="cls-1" d="M39.88,3.41h2v10.8h-2v-.8a3.1,3.1,0,0,1-2.4,1,3,3,0,0,1-1.3-.3,4.37,4.37,0,0,1-1.1-.7,5.34,5.34,0,0,1-.8-1.2,4.41,4.41,0,0,1-.3-1.6,5.91,5.91,0,0,1,.2-1.4,4.49,4.49,0,0,1,1.4-1.85,3,3,0,0,1,1-.5,3.81,3.81,0,0,1,1.1-.2,3.06,3.06,0,0,1,2.2.9Zm0,7.1a2.41,2.41,0,0,0-.6-1.6,1.92,1.92,0,0,0-2.72-.08l-.08.08a2.23,2.23,0,0,0-.6,1.5,2.31,2.31,0,0,0,.6,1.6,1.94,1.94,0,0,0,2.73.07l.07-.07A1.87,1.87,0,0,0,39.88,10.51Z"/><path class="cls-1" d="M48.88,6.91h1.9v7.3h-1.9v-.8a2.32,2.32,0,0,1-2,1,3.32,3.32,0,0,1-2.5-.8,3.92,3.92,0,0,1-.9-2.9V6.91h1.9v3.6a2.17,2.17,0,0,0,.5,1.5,1.46,1.46,0,0,0,1.2.6,1.61,1.61,0,0,0,1.3-.6,2.35,2.35,0,0,0,.5-1.8Z"/><path class="cls-1" d="M18,18.71h-.6c-.1,0-.2-.1-.3-.2a.3.3,0,0,1,0-.4l.2-.6a8.25,8.25,0,0,1,.3-1c.1-.1,0-.2-.1-.3a1.31,1.31,0,0,1-.4-.8,1.39,1.39,0,0,1,0-.9,1.19,1.19,0,0,1,.5-.7.34.34,0,0,0,.1-.3V6.81h-.2l-5.6,1.7-1.1.4a1.7,1.7,0,0,1-1,0C7.78,8.21,6.18,7.71,5,7.36L.24,5.56,0,5.36s-.1-.2,0-.3a.41.41,0,0,1,.1-.3c.1-.1.1-.1.2-.1,1-.4,2.4-.9,4.3-1.5l1.7-.6c.5-.2,1.2-.4,2.2-.7l1-.3a3.08,3.08,0,0,1,1.9,0q2.85.9,4.5,1.5,2.55.9,4.5,1.8h.1c.3,0,.4.3.4.5a.35.35,0,0,1-.29.4h-.11c-1,.3-1.7.6-2.1.7a.1.1,0,0,0-.1.1h0v6.9c0,.1,0,.2.1.2a1.29,1.29,0,0,1,.6.7,3,3,0,0,1,.1,1,1.92,1.92,0,0,1-.5.9l-.1.1v.2l.4,1.5c.1.5,0,.7-.4.7ZM3.68,9.21V7.71h.2c1.31.53,2.65,1,4,1.4l2.2.7a.64.64,0,0,0,.6,0,1.38,1.38,0,0,0,.6-.2c.8-.2,1.8-.6,3.3-1.1l2.4-.8h.3v2.65a1.82,1.82,0,0,1-.4,1.3,3.31,3.31,0,0,1-1.5,1.1,10.75,10.75,0,0,1-3.5.8A12.1,12.1,0,0,1,8,13.36a6.88,6.88,0,0,1-2.8-1,3,3,0,0,1-1-.9.93.93,0,0,1-.6-1Z"/></g></g><text class="cls-2" transform="translate(52.14 14.36)">Grads</text></g></g></svg>