<svg xmlns="http://www.w3.org/2000/svg" viewBox="0 0 87.24 17.35"><defs><style>.cls-1{fill:#ffc107;}</style></defs><g id="Calque_2" data-name="Calque 2"><g id="Layer_1" data-name="Layer 1"><path class="cls-1" d="M28.24,8.35V11h4.9v2h-6.8V2.05h6.8v2h-4.9v2.4h4.3v1.9Z"/><path class="cls-1" d="M39.84,2.05h2v10.8h-2v-.8a3.1,3.1,0,0,1-2.4,1,2.77,2.77,0,0,1-1.3-.3,4.13,4.13,0,0,1-1.1-.7,5,5,0,0,1-.8-1.2,4.15,4.15,0,0,1-.3-1.6,5.9,5.9,0,0,1,.2-1.4A4.5,4.5,0,0,1,35.54,6a3.13,3.13,0,0,1,1-.5,4.25,4.25,0,0,1,1.1-.2,3.1,3.1,0,0,1,2.2.9Zm0,7.1a2.45,2.45,0,0,0-.6-1.6,1.93,1.93,0,0,0-2.8,0,2.2,2.2,0,0,0-.6,1.5,2.27,2.27,0,0,0,.6,1.6,1.93,1.93,0,0,0,2.8,0A1.89,1.89,0,0,0,39.84,9.15Z"/><path class="cls-1" d="M48.84,5.55h1.9v7.3h-1.9v-.8a2.33,2.33,0,0,1-2,1,3.29,3.29,0,0,1-2.5-.8,3.89,3.89,0,0,1-.9-2.9V5.55h1.9v3.6a2.1,2.1,0,0,0,.5,1.5,1.43,1.43,0,0,0,1.2.6,1.61,1.61,0,0,0,1.3-.6,2.38,2.38,0,0,0,.5-1.8Z"/><path d="M57.14,8.45V6.55h5.2v6.3h-2v-.8a4.27,4.27,0,0,1-2.9,1,5.87,5.87,0,0,1-2.3-.4,5.67,5.67,0,0,1-1.8-1.2,5.44,5.44,0,0,1-1.1-1.8,7.11,7.11,0,0,1-.3-2.1,5.38,5.38,0,0,1,1-3.3,3.45,3.45,0,0,1,1.2-1.2,3.61,3.61,0,0,1,1.5-.8,4.67,4.67,0,0,1,1.7-.3,5.61,5.61,0,0,1,3.1.9,5.2,5.2,0,0,1,2,2.4l-2,.7a2.76,2.76,0,0,0-1.2-1.4,3.74,3.74,0,0,0-1.8-.5,2.9,2.9,0,0,0-2.3,1,4.11,4.11,0,0,0-.9,2.6,3.84,3.84,0,0,0,.9,2.5,3.47,3.47,0,0,0,4.3.4,2.58,2.58,0,0,0,1-1.9Z"/><path d="M67.94,5.55h.4v1.8a1.27,1.27,0,0,0-.6-.1,1.61,1.61,0,0,0-1.3.6,3.39,3.39,0,0,0-.6,1.5V13h-2V5.55h2v.8A2.35,2.35,0,0,1,67.94,5.55Z"/><path d="M69,3.15a1.09,1.09,0,0,1,.4-.9,1,1,0,0,1,1.6,0A1.15,1.15,0,0,1,71,4h0a1.23,1.23,0,0,1-.8.4,1.09,1.09,0,0,1-.9-.4A1.14,1.14,0,0,1,69,3.15Zm.2,2.4h2v7.3h-2Z"/><path d="M78.24,2.05h2v10.8h-2v-.8a3.1,3.1,0,0,1-2.4,1,2.77,2.77,0,0,1-1.3-.3,2.84,2.84,0,0,1-1.1-.8,5,5,0,0,1-.8-1.2,4.53,4.53,0,0,1-.3-1.6,5.9,5.9,0,0,1,.2-1.4A4.2,4.2,0,0,1,73.94,6a3.13,3.13,0,0,1,1-.5,4.1,4.1,0,0,1,1.1-.1,3.1,3.1,0,0,1,2.2.9Zm0,7.1a2.45,2.45,0,0,0-.6-1.6,1.93,1.93,0,0,0-2.8,0,2.27,2.27,0,0,0-.6,1.6,2.27,2.27,0,0,0,.6,1.6,1.93,1.93,0,0,0,2.8,0A2.27,2.27,0,0,0,78.24,9.15Z"/><path d="M87.24,7.25l-1.8.4a1,1,0,0,0-.4-.5,1.85,1.85,0,0,0-.7-.2,1.27,1.27,0,0,0-.6.1,1.38,1.38,0,0,0-.3.4.6.6,0,0,0,.1.4,1.38,1.38,0,0,0,.4.3l1.5.4a2.22,2.22,0,0,1,1.3.8,2.3,2.3,0,0,1,.4,1.4,2.14,2.14,0,0,1-.8,1.7,3,3,0,0,1-2,.6,4.2,4.2,0,0,1-2.1-.6,2.26,2.26,0,0,1-1-1.5l1.9-.3a.66.66,0,0,0,.4.5,1.08,1.08,0,0,0,.8.2q.9,0,.9-.6c0-.2-.2-.4-.6-.5-.7-.2-1.2-.3-1.4-.4a2.51,2.51,0,0,1-1.8-2.3,2.14,2.14,0,0,1,.8-1.7,2.64,2.64,0,0,1,1.9-.7,4.14,4.14,0,0,1,1.9.5A2.55,2.55,0,0,1,87.24,7.25Z"/><path class="cls-1" d="M18,17.35h-.6c-.1,0-.2-.1-.3-.2a.3.3,0,0,1,0-.4l.2-.6a6.21,6.21,0,0,1,.3-1c.1-.1,0-.2-.1-.3a1.23,1.23,0,0,1-.4-.8,1.39,1.39,0,0,1,0-.9,1.16,1.16,0,0,1,.5-.7.37.37,0,0,0,.1-.3V5.45h-.2l-5.6,1.7-1.1.4a1.7,1.7,0,0,1-1,0C7.74,6.85,6.14,6.35,5,6q-2.7-1-4.8-1.8L0,4s-.1-.2,0-.3a.37.37,0,0,1,.1-.3c.1-.1.1-.1.2-.1,1-.4,2.4-.9,4.3-1.5l1.7-.6c.5-.2,1.2-.4,2.2-.7l1-.3a3.08,3.08,0,0,1,1.9,0q2.85.9,4.5,1.5,2.55.9,4.5,1.8h.1c.3,0,.4.3.4.5a.35.35,0,0,1-.4.4c-1,.3-1.7.6-2.1.7a.1.1,0,0,0-.1.1v6.9c0,.1,0,.2.1.2a1.34,1.34,0,0,1,.6.7,3.4,3.4,0,0,1,.1,1,2,2,0,0,1-.5.9l-.1.1v.2l.4,1.5c.1.5,0,.7-.4.7ZM3.64,7.85V6.35h.2a40.14,40.14,0,0,0,4,1.4l2.2.7a.64.64,0,0,0,.6,0,1.42,1.42,0,0,0,.6-.2c.8-.2,1.8-.6,3.3-1.1l2.4-.8h.3V9a1.84,1.84,0,0,1-.4,1.3,3.27,3.27,0,0,1-1.5,1.1,10.5,10.5,0,0,1-3.5.8A12,12,0,0,1,8,12a6.72,6.72,0,0,1-2.8-1,2.84,2.84,0,0,1-1-.9.92.92,0,0,1-.6-1Z"/></g></g></svg>