<svg xmlns="http://www.w3.org/2000/svg" viewBox="0 0 94.81 18.5"><defs><style>.cls-1{fill:#ffc107;}.cls-2{font-size:17px;font-family:Bauhaus93, "Bauhaus 93";}</style></defs><g id="Calque_2" data-name="Calque 2"><g id="Calque_1-2" data-name="Calque 1"><g id="Calque_2-2" data-name="Calque 2"><g id="Layer_1" data-name="Layer 1"><path class="cls-1" d="M28.28,9.45V12.1h4.9v2h-6.8V3.15h6.8v2h-4.9v2.4h4.3v1.9Z"/><path class="cls-1" d="M39.88,3.15h2V14h-2v-.8a3.07,3.07,0,0,1-2.4,1,2.7,2.7,0,0,1-1.3-.3,4.11,4.11,0,0,1-1.1-.7,5.13,5.13,0,0,1-.8-1.2,4.37,4.37,0,0,1-.3-1.6,6.06,6.06,0,0,1,.2-1.4,4.56,4.56,0,0,1,1.4-1.85,3.47,3.47,0,0,1,1-.5,4.63,4.63,0,0,1,1.1-.2,3.1,3.1,0,0,1,2.2.9Zm0,7.1a2.43,2.43,0,0,0-.6-1.6,1.93,1.93,0,0,0-2.72-.07l-.08.07a2.25,2.25,0,0,0-.6,1.5,2.29,2.29,0,0,0,.6,1.6,1.92,1.92,0,0,0,2.73.07.23.23,0,0,0,.07-.07A1.84,1.84,0,0,0,39.88,10.25Z"/><path class="cls-1" d="M48.88,6.65h1.9V14h-1.9v-.8a2.32,2.32,0,0,1-2,1,3.32,3.32,0,0,1-2.5-.8,3.91,3.91,0,0,1-.9-2.9V6.65h1.9v3.6a2.13,2.13,0,0,0,.5,1.5,1.44,1.44,0,0,0,1.2.6,1.58,1.58,0,0,0,1.3-.6,2.33,2.33,0,0,0,.5-1.8Z"/><path class="cls-1" d="M18,18.45h-.6c-.1,0-.2-.1-.3-.2a.3.3,0,0,1,0-.4l.2-.6a8.83,8.83,0,0,1,.3-1c.1-.1,0-.2-.1-.3a1.26,1.26,0,0,1-.4-.8,1.39,1.39,0,0,1,0-.9,1.19,1.19,0,0,1,.5-.7.34.34,0,0,0,.1-.3V6.55h-.2l-5.6,1.7-1.1.4a1.7,1.7,0,0,1-1,0C7.78,8,6.18,7.45,5,7.1q-2.7-1-4.8-1.8L0,5.1s-.1-.2,0-.3a.41.41,0,0,1,.1-.3c.1-.1.1-.1.2-.1,1-.4,2.4-.9,4.3-1.5l1.7-.6c.5-.2,1.2-.4,2.2-.7l1-.3a3.08,3.08,0,0,1,1.9,0q2.85.9,4.5,1.5,2.55.9,4.5,1.8h.1c.3,0,.4.3.4.5a.35.35,0,0,1-.29.4h-.11c-1,.3-1.7.6-2.1.7a.11.11,0,0,0-.1.1h0v6.9c0,.1,0,.2.1.2a1.37,1.37,0,0,1,.6.7,3.1,3.1,0,0,1,.1,1,1.87,1.87,0,0,1-.5.9l-.1.1v.2l.4,1.5c.1.5,0,.7-.4.7ZM3.68,9V7.45h.2a38.7,38.7,0,0,0,4,1.4l2.2.7a.64.64,0,0,0,.6,0,1.38,1.38,0,0,0,.6-.2c.8-.2,1.8-.6,3.3-1.1l2.4-.8h.3V10.1a1.79,1.79,0,0,1-.4,1.3,3.17,3.17,0,0,1-1.5,1.1,10.26,10.26,0,0,1-3.5.8A11.81,11.81,0,0,1,8,13.1a6.74,6.74,0,0,1-2.8-1,2.78,2.78,0,0,1-1-.9.92.92,0,0,1-.6-1Z"/></g></g><text class="cls-2" transform="translate(52.91 14.17)">Grads</text></g></g></svg>